<?xml version="1.0" encoding="UTF-8"?>
<svg width="63px" height="63px" viewBox="0 0 63 63" version="1.1" xmlns="http://www.w3.org/2000/svg" xmlns:xlink="http://www.w3.org/1999/xlink">
    <title>Group 19</title>
    <defs>
        <path d="M19.5,36 C28.6126984,36 36,28.6126984 36,19.5 C36,17.5240826 35.6526803,15.6292861 35.0157611,13.8733306 C32.7152841,7.53102626 26.636781,3 19.5,3 C10.3873016,3 3,10.3873016 3,19.5 C3,27.9600592 9.36705563,34.9330129 17.5707122,35.8884064 C18.2035716,35.9621088 18.8473608,36 19.5,36 Z" id="path-1"></path>
        <filter x="-65.2%" y="-62.1%" width="248.5%" height="248.5%" filterUnits="objectBoundingBox" id="filter-2">
            <feOffset dx="3" dy="4" in="SourceAlpha" result="shadowOffsetOuter1"></feOffset>
            <feGaussianBlur stdDeviation="7.5" in="shadowOffsetOuter1" result="shadowBlurOuter1"></feGaussianBlur>
            <feColorMatrix values="0 0 0 0 0   0 0 0 0 0   0 0 0 0 0  0 0 0 0.309727382 0" type="matrix" in="shadowBlurOuter1"></feColorMatrix>
        </filter>
    </defs>
    <g id="Page-1" stroke="none" stroke-width="1" fill="none" fill-rule="evenodd">
        <g id="Group-19" transform="translate(9.000000, 8.000000)">
            <g id="Group-2">
                <rect id="Rectangle" fill="#33343A" x="0" y="0" width="39" height="39" rx="5"></rect>
                <g id="Combined-Shape">
                    <use fill="black" fill-opacity="1" filter="url(#filter-2)" xlink:href="#path-1"></use>
                    <use fill="#AEB4A1" fill-rule="evenodd" xlink:href="#path-1"></use>
                </g>
            </g>
            <g id="iconmonstr-behance-1" transform="translate(7.000000, 12.000000)" fill="#33343B" fill-rule="nonzero">
                <path d="M22,2 L15,2 L15,0 L22,0 L22,2 Z M23.726,12 C23.284,13.297 21.697,15 18.625,15 C15.551,15 13.061,13.271 13.061,9.325 C13.061,5.415 15.386,3.405 18.527,3.405 C21.609,3.405 23.491,5.187 23.902,7.831 C23.98,8.337 24.011,9.019 23.997,9.971 L15.97,9.971 C16.1,13.182 19.453,13.283 20.558,12 L23.726,12 Z M16.04,8 L21.005,8 C20.9,6.453 19.869,5.781 18.528,5.781 C17.062,5.781 16.251,6.549 16.04,8 Z M6.466,14.988 L-8.8817842e-16,14.988 L-8.8817842e-16,0.021 L6.953,0.021 C12.429,0.102 12.533,5.465 9.673,6.927 C13.134,8.187 13.25,14.988 6.466,14.988 Z M3,6 L6.584,6 C9.092,6 9.49,3 6.272,3 L3,3 L3,6 Z M6.391,9 L3,9 L3,12.016 L6.341,12.016 C9.396,12.016 9.209,9 6.391,9 L6.391,9 Z" id="Shape"></path>
            </g>
        </g>
    </g>
</svg>