<?xml version="1.0" encoding="UTF-8"?>
<svg width="100px" height="100px" viewBox="0 0 100 100" version="1.1" xmlns="http://www.w3.org/2000/svg" xmlns:xlink="http://www.w3.org/1999/xlink">
    <title>Combined Shape</title>
    <g id="Page-1" stroke="none" stroke-width="1" fill="none" fill-rule="evenodd">
        <path d="M100,0 L100,100 L0,100 L0,0 L100,0 Z M33.33,27.01 C27.66,27.01 27.66,27.01 23.115,30.115 C18.57,33.22 18.57,33.22 15.96,38.125 C13.35,43.03 13.35,43.03 11.955,48.43 C10.56,53.83 10.56,53.83 10.56,59.905 C10.56,65.98 10.56,65.98 13.53,69.985 C16.5,73.99 16.5,73.99 22.71,73.99 C24.78,73.99 24.78,73.99 26.94,73 C32.34,70.57 32.34,70.57 36.57,64.99 C36.558,65.047 36.558,65.047 36.5453,65.1093 L36.4917,65.3797 C36.1251,67.2751 36.1251,67.2751 35.2853,72.7533 L35.22,73.18 L44.85,72.82 L47.28,58.78 L54.03,29.62 L50.25,28.99 C38.37,27.01 38.37,27.01 33.33,27.01 Z M77.97,27.1 C70.23,27.1 70.23,27.1 64.92,31.69 C59.61,36.28 59.61,36.28 59.61,44.11 C59.61,48.52 59.61,48.52 62.58,50.815 C65.55,53.11 65.55,53.11 70.725,54.46 C75.9,55.81 75.9,55.81 77.34,56.62 C78.78,57.43 78.78,57.43 78.78,59.14 C78.78,65.71 78.78,65.71 69.15,65.71 C64.2966667,65.71 64.2966667,65.71 56.1885185,64.2077778 L55.56,64.09 L53.76,71.38 L55.74,72.01 C61.95,73.99 61.95,73.99 68.79,73.99 C77.7,73.99 77.7,73.99 83.19,69.715 C88.68,65.44 88.68,65.44 88.68,57.25 C88.68,52.21 88.68,52.21 85.44,50.14 C83.64,48.97 83.64,48.97 81.84,48.25 C80.04,47.53 80.04,47.53 76.17,46.405 C72.3,45.28 72.3,45.28 70.86,44.38 C69.42,43.48 69.42,43.48 69.42,41.23 C69.42,38.98 69.42,38.98 71.445,37.18 C73.47,35.38 73.47,35.38 76.98,35.38 C82.58625,35.38 82.58625,35.38 91.0028125,36.6198438 L91.74,36.73 L93.54,29.44 L91.56,28.9 C85.44,27.1 85.44,27.1 77.97,27.1 Z M33.15,35.29 C36.5863636,35.29 36.5863636,35.29 42.318843,36.520062 L42.87,36.64 L38.28,55.99 L36.21,58.42 C34.14,60.85 34.14,60.85 31.08,63.235 C28.02,65.62 28.02,65.62 25.455,65.62 C22.89,65.62 22.89,65.62 21.675,63.955 C20.46,62.29 20.46,62.29 20.46,58.96 C20.46,46.81 20.46,46.81 26.4,39.34 C29.55,35.29 29.55,35.29 33.15,35.29 Z" id="Combined-Shape" fill="#000000"></path>
    </g>
</svg>